<svg xmlns="http://www.w3.org/2000/svg" width="1440" height="900" viewBox="0 0 1440 900"><rect x="0" y="0" width="1440" height="900" rx="0" fill="#FAFAFA"/><rect x="0" y="0" width="1440" height="88" rx="0" fill="#FFFFFF"/><rect x="60" y="23" width="42" height="42" rx="12" fill="#171717"/><text x="73" y="51" font-family="Arial, sans-serif" font-size="22" font-weight="700" fill="#FFFFFF">M</text><text x="114" y="51" font-family="Arial, sans-serif" font-size="24" font-weight="700" fill="#171717">MediaWall</text><rect x="1193" y="22" width="185" height="44" rx="12" fill="#171717"/><text x="1225" y="51" font-family="Arial, sans-serif" font-size="16" font-weight="700" fill="#FFFFFF">+  Загрузить</text><text x="60" y="155" font-family="Arial, sans-serif" font-size="12" font-weight="700" fill="#777777">ОБЩАЯ ГАЛЕРЕЯ</text><text x="60" y="233" font-family="Arial, sans-serif" font-size="62" font-weight="700" fill="#171717">Делись моментами.</text><text x="60" y="308" font-family="Arial, sans-serif" font-size="62" font-weight="700" fill="#A0A0A0">Смотри и вдохновляйся.</text><text x="60" y="352" font-family="Arial, sans-serif" font-size="19" font-weight="400" fill="#777777">Загружай фотографии и видео. Новые публикации доступны всем.</text><rect x="60" y="413" width="270" height="48" rx="12" fill="#EEEEEE"/><rect x="65" y="418" width="81" height="38" rx="9" fill="#FFFFFF"/><text x="91" y="443" font-family="Arial, sans-serif" font-size="15" font-weight="700" fill="#171717">Все</text><text x="169" y="443" font-family="Arial, sans-serif" font-size="15" font-weight="400" fill="#777777">Фото</text><text x="259" y="443" font-family="Arial, sans-serif" font-size="15" font-weight="400" fill="#777777">Видео</text><text x="1265" y="443" font-family="Arial, sans-serif" font-size="14" font-weight="400" fill="#777777">Публикаций: 4</text><rect x="60" y="486" width="314" height="340" rx="15" fill="#FFFFFF" stroke="#E9E9E9"/><rect x="60" y="486" width="314" height="248" rx="14" fill="#D7DDE5"/><path d="M60 693 L139 614 L211 675 L285 577 L374 659 L374 734 L60 734 Z" fill="#A1ACBB" opacity="0.55"/><rect x="73" y="748" width="160" height="13" rx="5" fill="#D3D3D3"/><text x="74" y="788" font-family="Arial, sans-serif" font-size="16" font-weight="700" fill="#171717">Горный пейзаж</text><text x="74" y="812" font-family="Arial, sans-serif" font-size="12" font-weight="400" fill="#999999">Фото</text><rect x="397" y="486" width="314" height="340" rx="15" fill="#FFFFFF" stroke="#E9E9E9"/><rect x="397" y="486" width="314" height="248" rx="14" fill="#D6CFC7"/><path d="M397 693 L476 614 L548 675 L622 577 L711 659 L711 734 L397 734 Z" fill="#897F76" opacity="0.55"/><rect x="410" y="748" width="160" height="13" rx="5" fill="#D3D3D3"/><text x="411" y="788" font-family="Arial, sans-serif" font-size="16" font-weight="700" fill="#171717">Ночной город</text><text x="411" y="812" font-family="Arial, sans-serif" font-size="12" font-weight="400" fill="#999999">Фото</text><rect x="734" y="486" width="314" height="340" rx="15" fill="#FFFFFF" stroke="#E9E9E9"/><rect x="734" y="486" width="314" height="248" rx="14" fill="#D2E2DA"/><path d="M734 693 L813 614 L885 675 L959 577 L1048 659 L1048 734 L734 734 Z" fill="#7A9A89" opacity="0.55"/><rect x="747" y="748" width="160" height="13" rx="5" fill="#D3D3D3"/><text x="748" y="788" font-family="Arial, sans-serif" font-size="16" font-weight="700" fill="#171717">Моменты лета</text><text x="748" y="812" font-family="Arial, sans-serif" font-size="12" font-weight="400" fill="#999999">Фото</text><rect x="1071" y="486" width="314" height="340" rx="15" fill="#FFFFFF" stroke="#E9E9E9"/><rect x="1071" y="486" width="314" height="248" rx="14" fill="#DCDCE6"/><path d="M1071 693 L1150 614 L1222 675 L1296 577 L1385 659 L1385 734 L1071 734 Z" fill="#9A95B2" opacity="0.55"/><rect x="1084" y="748" width="160" height="13" rx="5" fill="#D3D3D3"/><text x="1085" y="788" font-family="Arial, sans-serif" font-size="16" font-weight="700" fill="#171717">Небольшое видео</text><text x="1085" y="812" font-family="Arial, sans-serif" font-size="12" font-weight="400" fill="#999999">Видео</text><rect x="1208" y="586" width="44" height="44" rx="22" fill="#171717"/><text x="1225" y="614" font-family="Arial, sans-serif" font-size="16" font-weight="400" fill="#FFFFFF">▶</text></svg>